<?xml version="1.0" encoding="utf-8"?>
<!-- Generator: Adobe Illustrator 16.0.0, SVG Export Plug-In . SVG Version: 6.00 Build 0)  -->
<!DOCTYPE svg PUBLIC "-//W3C//DTD SVG 1.1//EN" "http://www.w3.org/Graphics/SVG/1.1/DTD/svg11.dtd">
<svg version="1.1" id="Layer_1" xmlns="http://www.w3.org/2000/svg" xmlns:xlink="http://www.w3.org/1999/xlink" x="0px" y="0px"
	 width="401.496px" height="117.477px" viewBox="0 0 401.496 117.477" enable-background="new 0 0 401.496 117.477"
	 xml:space="preserve">
<g enable-background="new    ">
	<path fill="#FFFFFF" d="M19.3,64.151v28.8H8.1v-74.1h11.2v30.6c1.6-3.266,4.016-5.833,7.25-7.7c3.233-1.865,6.716-2.8,10.45-2.8
		c6,0,10.85,1.834,14.55,5.5c3.7,3.667,5.55,8.967,5.55,15.9v32.6H45.9v-29.2c0-9.8-4.067-14.7-12.2-14.7
		c-3.867,0-7.234,1.285-10.1,3.852C20.733,55.468,19.3,59.218,19.3,64.151z"/>
	<path fill="#FFFFFF" d="M75.899,92.951H64.7v-53.2h11.2L75.899,92.951L75.899,92.951z"/>
	<path fill="#FFFFFF" d="M111.998,50.25c-5.534,0-9.7,1.8-12.5,5.4c-2.8,3.6-4.2,8.435-4.2,14.5v22.8h-11.2v-53.2h11.2v10.7
		c1.8-3.333,4.25-6.065,7.35-8.2c3.1-2.133,6.383-3.231,9.85-3.3l0.1,11.3C112.398,50.25,112.198,50.25,111.998,50.25z"/>
	<path fill="#FFFFFF" d="M165.297,71.25h-41.7c0.266,3.867,2.033,6.984,5.3,9.352c3.266,2.366,7,3.55,11.2,3.55
		c6.666,0,11.733-2.102,15.2-6.3l6.4,7c-5.734,5.934-13.2,8.898-22.4,8.898c-7.467,0-13.817-2.481-19.05-7.45
		c-5.234-4.965-7.85-11.633-7.85-20c0-8.364,2.666-15.016,8-19.948c5.333-4.935,11.615-7.4,18.85-7.4
		c7.233,0,13.383,2.185,18.45,6.55c5.065,4.367,7.6,10.385,7.6,18.05V71.25z M123.597,62.451h30.5c0-4.466-1.4-7.9-4.2-10.3
		c-2.8-2.4-6.25-3.602-10.35-3.602s-7.785,1.25-11.05,3.75C125.23,54.8,123.597,58.185,123.597,62.451z"/>
	<path fill="#FFFFFF" d="M198.097,38.951c7.133,0,13.232,2.467,18.3,7.4c5.065,4.934,7.601,11.5,7.601,19.698
		c0,8.2-2.518,14.867-7.551,20c-5.033,5.136-10.9,7.7-17.6,7.7c-6.7,0-12.717-2.933-18.05-8.8v27.4h-11.2V39.75h11.2v9.3
		C185.197,42.318,190.962,38.951,198.097,38.951z M180.597,66.451c0,5.067,1.533,9.217,4.6,12.45c3.065,3.233,6.8,4.85,11.2,4.85
		c4.399,0,8.233-1.6,11.5-4.8s4.899-7.35,4.899-12.45c0-5.1-1.601-9.333-4.799-12.7c-3.201-3.364-7.035-5.05-11.5-5.05
		c-4.467,0-8.234,1.686-11.3,5.05C182.129,57.167,180.597,61.385,180.597,66.451z"/>
	<path fill="#FFFFFF" d="M239.996,92.951h-11.199v-74.2h11.199V92.951z"/>
	<path fill="#FFFFFF" d="M291.296,92.951h-10.201v-7.1c-4.399,5.267-10.299,7.898-17.699,7.898c-5.535,0-10.117-1.564-13.75-4.7
		c-3.635-3.133-5.45-7.314-5.45-12.55c0-5.231,1.933-9.148,5.8-11.75c3.865-2.6,9.101-3.898,15.7-3.898h14.5v-2
		c0-7.066-3.935-10.602-11.8-10.602c-4.936,0-10.066,1.8-15.4,5.4l-5-7c6.467-5.133,13.801-7.7,22-7.7
		c6.267,0,11.383,1.584,15.351,4.75c3.967,3.167,5.95,8.15,5.95,14.95V92.951L291.296,92.951z M280.095,73.151v-4.5h-12.6
		c-8.066,0-12.101,2.534-12.101,7.6c0,2.602,1,4.585,3,5.95c2,1.367,4.782,2.05,8.351,2.05c3.566,0,6.684-1,9.35-3
		S280.095,76.55,280.095,73.151z"/>
	<path fill="#FFFFFF" d="M322.494,93.75c-7.4,0-13.768-2.516-19.101-7.55c-5.334-5.033-8-11.615-8-19.75
		c0-8.133,2.782-14.75,8.351-19.85c5.564-5.102,12.35-7.65,20.35-7.65s14.768,2.768,20.301,8.3l-6.6,8.102c-4.6-4-9.234-6-13.9-6
		c-4.668,0-8.717,1.55-12.148,4.648c-3.436,3.102-5.15,7.102-5.15,12c0,4.9,1.699,9.05,5.102,12.45c3.398,3.4,7.582,5.1,12.549,5.1
		s9.648-2.266,14.051-6.8l6.6,7.2C338.427,90.485,330.96,93.75,322.494,93.75z"/>
	<path fill="#FFFFFF" d="M397.992,71.25h-41.699c0.266,3.867,2.033,6.984,5.301,9.352c3.266,2.366,7,3.55,11.199,3.55
		c6.666,0,11.732-2.102,15.199-6.3l6.4,7c-5.734,5.934-13.199,8.898-22.4,8.898c-7.467,0-13.816-2.481-19.049-7.45
		c-5.234-4.965-7.852-11.633-7.852-20c0-8.364,2.666-15.016,8-19.948c5.334-4.935,11.615-7.4,18.852-7.4
		c7.232,0,13.383,2.185,18.449,6.55c5.064,4.367,7.6,10.385,7.6,18.05V71.25L397.992,71.25z M356.292,62.451h30.5
		c0-4.466-1.4-7.9-4.199-10.3c-2.801-2.4-6.25-3.602-10.352-3.602c-4.1,0-7.783,1.25-11.049,3.75
		C357.925,54.8,356.292,58.185,356.292,62.451z"/>
</g>
<path fill="#626262" d="M75.907-57.718c0-0.7,0.019-1.401-0.006-2.1c-0.017-0.443,0.129-0.767,0.453-1.075
	c3.617-3.448,7.222-6.908,10.831-10.365c0.786-0.753,1.588-1.491,2.354-2.264c0.341-0.345,0.57-0.319,0.909,0.008
	c3.048,2.945,6.109,5.877,9.169,8.81c1.333,1.278,2.667,2.558,4.015,3.819c0.31,0.291,0.438,0.603,0.434,1.025
	c-0.017,1.517-0.019,3.033,0,4.55c0.006,0.481-0.177,0.653-0.652,0.645c-1.108-0.021-2.217-0.02-3.325,0
	c-0.404,0.007-0.692-0.142-0.974-0.419c-2.875-2.815-5.77-5.613-8.632-8.441c-0.414-0.41-0.617-0.361-1.003,0.02
	c-2.853,2.812-5.733,5.595-8.592,8.401c-0.317,0.311-0.641,0.45-1.082,0.44c-1.031-0.021-2.061-0.005-3.092-0.007
	c-0.789-0.002-0.801-0.016-0.803-0.832C75.906-56.24,75.907-56.979,75.907-57.718z"/>
<g>
	<path fill="#E91E63" d="M57.142,15.005c0-0.654,0.018-1.31-0.006-1.963c-0.015-0.415,0.121-0.716,0.423-1.004
		c3.381-3.225,6.751-6.458,10.125-9.69c0.735-0.705,1.485-1.394,2.201-2.117c0.318-0.32,0.532-0.298,0.85,0.009
		c2.85,2.753,5.711,5.495,8.572,8.235c1.247,1.195,2.493,2.391,3.753,3.571c0.289,0.271,0.41,0.563,0.405,0.958
		c-0.017,1.417-0.019,2.836,0,4.254c0.006,0.451-0.166,0.611-0.61,0.604c-1.036-0.021-2.072-0.019-3.108,0
		c-0.378,0.006-0.646-0.134-0.911-0.393c-2.688-2.633-5.394-5.247-8.07-7.893c-0.387-0.382-0.578-0.337-0.938,0.019
		c-2.667,2.629-5.359,5.231-8.032,7.854c-0.296,0.291-0.6,0.421-1.012,0.413c-0.963-0.021-1.927-0.005-2.891-0.008
		c-0.737-0.001-0.749-0.015-0.75-0.775C57.14,16.386,57.142,15.697,57.142,15.005z"/>
</g>
</svg>
